<?xml version="1.0" encoding="utf-8"?>
<!-- Generator: Adobe Illustrator 23.1.1, SVG Export Plug-In . SVG Version: 6.00 Build 0)  -->
<svg version="1.1" id="Layer_1" xmlns="http://www.w3.org/2000/svg" xmlns:xlink="http://www.w3.org/1999/xlink" x="0px" y="0px"
	 viewBox="0 0 512 512" style="enable-background:new 0 0 512 512;" xml:space="preserve">
<style type="text/css">
	.st0{fill:#E50069;}
</style>
<g>
	<g>
		<path class="st0" d="M237,207.3c-5.3,0.1-10.3,1.2-15,3.2c-4.6,2-8.8,4.8-12.3,8.3c-3.5,3.5-6.3,7.7-8.3,12.3c-2,4.6-3,9.6-3,14.9
			v33.2c0,1.7,0.6,3.2,1.8,4.3c1.2,1.2,2.7,1.8,4.4,1.8c1.7,0,3.2-0.6,4.4-1.8c1.2-1.2,1.8-2.6,1.8-4.3V246c0-3.5,0.7-6.9,2-10.1
			c1.4-3.2,3.2-6,5.6-8.4c2.4-2.4,5.2-4.3,8.4-5.7c3.2-1.4,6.6-2.2,10.2-2.3c2,0,3.6-0.6,4.9-1.7v0c1.3-1.2,1.9-2.6,1.9-4.4
			c0-1.7-0.6-3.2-1.9-4.4C240.6,207.9,239,207.3,237,207.3z"/>
		<path class="st0" d="M313.5,247.9c-2-2-4.3-3.5-7-4.7c-2.7-1.1-5.6-1.7-8.5-1.7h-18.2c-3,0-5.5-1-7.7-3.2
			c-2.2-2.2-3.2-4.7-3.2-7.6s1.1-5.5,3.2-7.6c2.2-2.2,4.7-3.3,7.7-3.4h31.8c1.7,0,3.2-0.6,4.3-1.8c1.2-1.2,1.8-2.6,1.8-4.3
			c0-1.7-0.6-3.2-1.8-4.3c-1.2-1.2-2.6-1.8-4.3-1.8h-31.8c-3.2,0-6.2,0.6-9,1.8c-2.8,1.2-5.3,2.9-7.3,4.9c-2.1,2.1-3.8,4.6-5,7.4
			c-1.2,2.8-1.8,5.9-1.8,9c0,3.2,0.6,6.2,1.8,9c1.2,2.8,2.9,5.2,5,7.3c2.1,2.1,4.6,3.7,7.3,4.9c2.8,1.2,5.8,1.8,9,1.8h18.2
			c2.7,0,4.9,0.9,6.9,2.9c2,1.9,2.9,4.2,2.9,6.8c0,2.7-0.9,4.9-2.9,6.9c-2,1.9-4.2,2.9-6.9,2.9h-33.7c-1.7,0-3.1,0.6-4.3,1.8
			c-1.2,1.2-1.8,2.6-1.8,4.3c0,1.7,0.6,3.2,1.8,4.3c1.2,1.2,2.6,1.8,4.3,1.8h33.7c3,0,5.8-0.6,8.5-1.7c2.7-1.1,5-2.7,7-4.7
			c2-2,3.6-4.3,4.7-7c1.1-2.7,1.7-5.6,1.7-8.5c0-3-0.6-5.8-1.7-8.5C317.1,252.2,315.5,249.9,313.5,247.9z"/>
		<path class="st0" d="M176.7,230.9c-2.1-4.6-4.9-8.6-8.4-12c-3.5-3.4-7.6-6.1-12.1-8.2c-4.5-2-9.4-3.1-14.6-3.1h0
			c-5.5,0.2-10.7,1.4-15.5,3.4c-4.7,2.1-8.9,4.9-12.4,8.3c-3.5,3.5-6.2,7.6-8.2,12.2c-2,4.6-3,9.7-3,15c0,5.5,1,10.7,3.1,15.4
			c2,4.7,4.8,8.8,8.4,12.2c3.5,3.4,7.6,6.1,12.3,8c4.6,1.9,9.7,2.9,15,2.9c5.7,0,10.9-0.8,15.3-2.5c4.5-1.7,8.5-4.5,12-8.4
			c1.2-1.2,1.8-2.6,1.8-4.3c0-1.7-0.6-3.1-1.8-4.3c-1.2-1.2-2.6-1.8-4.3-1.8c-1.7,0-3.1,0.6-4.3,1.8c-2.5,2.4-5.3,4.2-8.5,5.6
			c-3.1,1.3-6.6,2-10.2,2c-3.2,0-6.4-0.6-9.3-1.7c-3-1.1-5.6-2.7-7.9-4.7c-2.3-2-4.3-4.3-5.9-7c-1.3-2.3-2.3-4.7-2.8-7.3h58.7
			c1.5,0,3-0.6,4.3-1.7c1.4-1.2,2-2.9,1.8-5.1C180,240.4,178.8,235.4,176.7,230.9z M115.6,240.2c0.6-2.5,1.6-4.9,2.8-7.1
			c1.5-2.6,3.5-5,5.8-6.9c2.3-1.9,5-3.5,7.9-4.6c5.8-2.3,12.7-2.3,18.5,0c2.9,1.1,5.6,2.7,7.9,4.6c2.3,1.9,4.3,4.2,5.8,6.9
			c1.3,2.2,2.3,4.6,2.9,7.1H115.6z"/>
		<path class="st0" d="M76.4,183.1c-1.7,0-3.1,0.6-4.3,1.8c-1.2,1.2-1.8,2.6-1.8,4.3v31c-3-2.9-6.5-5.4-10.4-7.6
			c-4.9-2.8-10.4-4.4-16.5-4.6c-5.1,0-10.1,1.1-14.7,3.1c-4.6,2.1-8.8,4.9-12.3,8.4c-3.5,3.5-6.3,7.6-8.4,12.3
			c-2.1,4.7-3.1,9.7-3.1,15.1c0,5.2,1,10.2,3.1,14.8c2,4.6,4.8,8.7,8.3,12.2c3.5,3.5,7.6,6.3,12.3,8.3c4.7,2,9.8,3,15.3,3
			c5.2,0,10.2-1,14.9-2.9c4.7-1.9,8.9-4.6,12.4-8c3.5-3.4,6.3-7.5,8.4-12.2c2-4.7,3.1-9.8,3.1-15.3v-57.7c0-1.7-0.6-3.1-1.8-4.3
			C79.5,183.7,78.1,183.1,76.4,183.1z M68.2,257c-1.4,3.2-3.3,6-5.7,8.4c-2.4,2.4-5.3,4.3-8.5,5.7c-3.2,1.4-6.6,2.1-10.3,2.1
			c-3.6,0-7.1-0.7-10.4-2.1c-3.2-1.4-6.1-3.3-8.5-5.7c-2.4-2.4-4.3-5.2-5.7-8.4c-1.4-3.2-2.1-6.6-2.1-10.2c0-3.6,0.7-7.1,2.1-10.3
			c1.4-3.2,3.3-6.1,5.7-8.5c2.4-2.4,5.3-4.3,8.5-5.7c3.2-1.4,6.7-2.1,10.4-2.1c3.5,0,6.9,0.7,10.1,2c3.2,1.3,5.9,3.2,8.3,5.5
			c2.4,2.4,4.3,5.2,5.7,8.4c1.4,3.2,2.2,6.8,2.5,10.6C70.3,250.4,69.6,253.9,68.2,257z"/>
		<path class="st0" d="M368.4,273.2c-3.3-0.1-5.9-0.8-7.8-2c-2-1.2-3.5-2.7-4.6-4.3c-1.1-1.6-1.8-3.2-2.1-4.7
			c-0.4-1.9-0.5-2.9-0.5-3.4v-70c0-1.7-0.6-3.2-1.8-4.3c-1.2-1.2-2.7-1.7-4.4-1.7c-1.7,0-3.2,0.6-4.4,1.7c-1.2,1.2-1.8,2.6-1.8,4.3
			v70c0,2.4,0.5,5.1,1.4,8.1c0.9,3,2.5,5.9,4.7,8.6c2.2,2.7,5,5,8.5,6.8c3.5,1.8,7.8,2.8,12.9,2.9c1.7,0,3.2-0.6,4.4-1.7
			c1.2-1.2,1.8-2.6,1.8-4.3c0-1.7-0.6-3.1-1.8-4.3C371.6,273.8,370.1,273.2,368.4,273.2z"/>
		<path class="st0" d="M504.1,230.7c-2-4.7-4.8-8.7-8.4-12.1c-3.5-3.4-7.7-6.1-12.4-8c-4.7-1.9-9.7-2.9-14.9-2.9
			c-5.4,0-10.6,1-15.3,3c-4.7,2-8.8,4.8-12.3,8.3c-3.5,3.5-6.2,7.6-8.3,12.2c-2,4.6-3.1,9.6-3.1,14.8c0,5.3,1,10.4,3.1,15
			c2.1,4.6,4.9,8.8,8.4,12.3c3.5,3.5,7.6,6.3,12.3,8.4c4.6,2.1,9.6,3.1,14.8,3.1h0c6-0.2,11.5-1.7,16.4-4.6
			c3.7-2.1,7.1-4.6,10.1-7.4v18c0,3.5-0.7,6.9-2,10.1c-1.3,3.2-3.2,6-5.5,8.3c-2.4,2.3-5.2,4.3-8.3,5.7c-3.1,1.4-6.5,2.2-10,2.3
			c-2,0-3.6,0.6-4.8,1.7c-1.2,1.2-1.9,2.6-1.9,4.3c0,1.7,0.6,3.2,1.9,4.3c1.2,1.2,2.9,1.7,4.9,1.7c5.2-0.1,10.2-1.2,14.8-3.2
			c4.6-2,8.7-4.8,12.1-8.3c3.5-3.5,6.2-7.6,8.2-12.2c1.4-3.3,2.3-6.9,2.7-10.5c0.3-0.8,0.5-1.5,0.5-2.3v-46.7
			C507.1,240.6,506.1,235.4,504.1,230.7z M492.5,256.6c-1.4,3.2-3.4,6.1-5.7,8.4c-2.4,2.3-5.1,4.2-8.3,5.5c-3.1,1.3-6.5,2-10.1,2
			c-3.7,0-7.1-0.7-10.4-2.1c-3.3-1.4-6.1-3.3-8.5-5.7c-2.4-2.4-4.3-5.2-5.7-8.5c-1.4-3.2-2.1-6.7-2.1-10.3c0-3.6,0.7-7,2.1-10.2
			c1.4-3.2,3.3-6,5.7-8.4c2.4-2.4,5.3-4.3,8.5-5.7c3.2-1.4,6.7-2.1,10.4-2.1c3.6,0,7.1,0.7,10.3,2.1c3.2,1.4,6,3.3,8.5,5.7
			c2.4,2.4,4.3,5.2,5.7,8.4c1.4,3.2,2.1,6.6,2.1,10.2C494.7,249.8,493.9,253.4,492.5,256.6z"/>
		<path class="st0" d="M401.3,183.1c-2.3,0-4.2,0.8-5.8,2.4c-1.6,1.6-2.4,3.6-2.4,5.8c0,2.3,0.8,4.2,2.4,5.8
			c1.6,1.6,3.6,2.4,5.8,2.4c2.3,0,4.2-0.8,5.8-2.4c1.6-1.6,2.4-3.6,2.4-5.8c0-2.3-0.8-4.2-2.4-5.8
			C405.5,183.9,403.6,183.1,401.3,183.1z"/>
		<path class="st0" d="M401.3,207.5c-1.8,0-3.4,0.6-4.7,1.7c-1.3,1.2-2,2.7-2,4.4v65.7c0,1.7,0.7,3.2,2,4.4c1.3,1.1,2.9,1.7,4.7,1.7
			c1.8,0,3.4-0.6,4.7-1.7c1.3-1.2,2-2.7,2-4.4v-65.7c0-1.7-0.7-3.2-2-4.4C404.7,208,403.1,207.5,401.3,207.5z"/>
	</g>
</g>
</svg>
